{"title":"Kagi no Kakatta Heya (2012) Complete + SP (Hardsubbed) BANKAI","uid":9902149,"size":2577810301,"categoryP":"video","categoryS":"tv_shows","magnet":"?xt=urn:btih:102e5aaf767de8043393e37c97f43cb9b732273b&amp;dn=Kagi+no+Kakatta+Heya+%282012%29+Complete+%2B+SP+%28Hardsubbed%29+BANKAI&amp;tr=udp%3A%2F%2Ftracker.openbittorrent.com%3A80&amp;tr=udp%3A%2F%2Fopen.demonii.com%3A1337&amp;tr=udp%3A%2F%2Ftracker.coppersurfer.tk%3A6969&amp;tr=udp%3A%2F%2Fexodus.desync.com%3A6969","seeders":1,"leechers":1,"uploader":"8ankai","files":12,"time":1396744717,"description":"Kagi no Kakatta Heya (2012)\n &lt;a href=&quot;\nhttp://i.imgur.com/PXbc7qH.jpg&quot; rel=&quot;nofollow&quot; target=&quot;_NEW&quot;&gt;\nhttp://i.imgur.com/PXbc7qH.jpg&lt;/a&gt;\n &lt;a href=&quot;\nhttp://i.imgur.com/OKkKowm.jpg&quot; rel=&quot;nofollow&quot; target=&quot;_NEW&quot;&gt;\nhttp://i.imgur.com/OKkKowm.jpg&lt;/a&gt;\n\n\nINFO:\nFormat : Renzoku\nTitle (romaji) : Kagi no Kakatta Heya\nTitle (English) : The Locked Room Murders\nGenre : Locked room, mystery\nEpisodes : 11+SP\nBroadcast network : Fuji TV\nTheme song :\nOpening theme : PINK KILLS by Ken Arai\nEnding theme : Face Down by Arashi\nEncoder : BANKAI  \nSubtitle : ENGLISH HARDSUBBED\n\nEnglish substitles by subie06\nRAWs by furransu &amp; zdzdz\n\n\nCAST:\nOhno Satoshi as Enomoto Kei\nToda Erika as Aoto Junko\nSato Koichi as Serizawa Gou\nNounen Rena as Mizuki Rina\nShukugawa Atom as Tachigawa (ep1,4,10)\nUkaji Takashi as Kouno Mitsuo (ep3,5,10-11)\n\n\nSYNOPSIS:\nEnomoto Kei is a security &quot;otaku&quot; working for a security firm, devoted to improving the securities system on a daily basis. He is not an easy person to familiarize oneself with, always collected and calm, unapproachable, a maniac in Physics, Science, Architecture and profound in other basic theoretical foundation. He is certain and proud of the fact that there is no key which he cannot unlock.\n\nOne day, Kei is asked to help reveal a mystery behind a locked room murderer. While he lacks any interest in solving the mystery, he is inevitably intrigued by the term, &quot;Closed Doors&quot; and decides to take on the position. He works side by side with Aoto Junko and Serizawa Gou, who are lawyers working at a major law firm. Junko is pure and forward, acting upon her instincts while Serizawa is a prideful elitist who sees time as money, and therefore, will not take on any job that is unprofitable.\n\nPossessing a vast amount of knowledge and acute insightfulness, Kei is able to unlock the closed doors and unravel the secrets leading to the solution. Never before has there been a drama focused solely on closed doors. It's an all new original mystery that will keep you guessing every week! -- Fuji TV\n\n\nVIDEO INFO:\nFormat : MPEG-4 \nFormat profile : Base Media \nCodec ID : isom \nFile size : 167 MiB \nDuration : 46mn 34s \nOverall bit rate mode : Variable \nOverall bit rate : 502 Kbps \n\nVideo \nFormat : AVC \nFormat/Info : Advanced Video Codec \nFormat profile : &lt;a class=&quot;__cf_email__&quot; href=&quot;/cdn-cgi/l/email-protection&quot; data-cfemail=&quot;5911303e3119156a7768&quot;&gt;[email&amp;#160;protected]&lt;/a&gt;&lt;script cf-hash='f9e31' type=&quot;text/javascript&quot;&gt;\n/* &lt;![CDATA[ */!function(){try{var t=&quot;currentScript&quot;in document?document.currentScript:function(){for(var t=document.getElementsByTagName(&quot;script&quot;),e=t.length;e--;)if(t[e].getAttribute(&quot;cf-hash&quot;))return t[e]}();if(t&amp;&amp;t.previousSibling){var e,r,n,i,c=t.previousSibling,a=c.getAttribute(&quot;data-cfemail&quot;);if(a){for(e=&quot;&quot;,r=parseInt(a.substr(0,2),16),n=2;a.length-n;n+=2)i=parseInt(a.substr(n,2),16)^r,e+=String.fromCharCode(i);e=document.createTextNode(e),c.parentNode.replaceChild(e,c)}}}catch(u){}}();/* ]]&gt; */&lt;/script&gt; \nFormat settings, CABAC : Yes \nFormat settings, ReFrames : 4 frames \nCodec ID : avc1 \nCodec ID/Info : Advanced Video Coding \nDuration : 46mn 34s \nBit rate : 307 Kbps \nMaximum bit rate : 1 659 Kbps \nWidth : 848 pixels \nHeight : 480 pixels \nDisplay aspect ratio : 16:9 \nFrame rate mode : Constant \nFrame rate : 29.970 fps \nColor space : YUV \nChroma subsampling : 4:2:0 \nBit depth : 8 bits \nScan type : Progressive \nBits/(Pixel*Frame) : 0.025 \nStream size : 102 MiB (61%) \n\nAudio \nFormat : AAC \nFormat/Info : Advanced Audio Codec \nFormat profile : LC \nCodec ID : 40 \nDuration : 46mn 34s \nBit rate mode : Variable \nBit rate : 192 Kbps \nMaximum bit rate : 246 Kbps \nChannel(s) : 2 channels \nChannel positions : Front: L R \nSampling rate : 48.0 KHz \nCompression mode : Lossy \nStream size : 63.6 MiB (38%) \n\n\nSCREENSHOT: &lt;a href=&quot;\nhttp://i.imgur.com/1xiwGxS.jpg&quot; rel=&quot;nofollow&quot; target=&quot;_NEW&quot;&gt;\nhttp://i.imgur.com/1xiwGxS.jpg&lt;/a&gt;\n &lt;a href=&quot;\nhttp://i.imgur.com/XNX8Z16.jpg&quot; rel=&quot;nofollow&quot; target=&quot;_NEW&quot;&gt;\nhttp://i.imgur.com/XNX8Z16.jpg&lt;/a&gt;\n &lt;a href=&quot;\nhttp://i.imgur.com/mZK2oLK.jpg&quot; rel=&quot;nofollow&quot; target=&quot;_NEW&quot;&gt;\nhttp://i.imgur.com/mZK2oLK.jpg&lt;/a&gt;\n\nEnjoy &amp; Please Seed!!","torrent":{"xt":"urn:btih:102e5aaf767de8043393e37c97f43cb9b732273b","amp;dn":"Kagi+no+Kakatta+Heya+%282012%29+Complete+%2B+SP+%28Hardsubbed%29+BANKAI","amp;tr":["udp%3A%2F%2Ftracker.openbittorrent.com%3A80","udp%3A%2F%2Fopen.demonii.com%3A1337","udp%3A%2F%2Ftracker.coppersurfer.tk%3A6969","udp%3A%2F%2Fexodus.desync.com%3A6969"],"infoHash":"102e5aaf767de8043393e37c97f43cb9b732273b","infoHashBuffer":{"type":"Buffer","data":[16,46,90,175,118,125,232,4,51,147,227,124,151,244,60,185,183,50,39,59]},"announce":[],"urlList":[]}}